# xmcd CD database file
#
# Track frame offsets:
#	150
#	19212
#	40454
#	57976
#	73879
#	90241
#	103319
#	120061
#	131766
#	152990
#	171415
#	189691
#	201402
#	215824
#	232513
#	248522
#	271649
#	285754
#	302198
#	316113
#
# Disc length: 4378 seconds
#
# Revision: 3
# Processed by: cddbd v1.5.2PL0 Copyright (c) Steve Scherf et al.
# Submitted via: CDex 1.51
#
DISCID=18111814
DTITLE=Сборник. - ''Старая пластинка. Выпуск 1''.
DYEAR=2009
DGENRE=СССР - Ретро
TTITLE0=''Не волнйтесь, тётя''. - ''Весёлые ребята''
TTITLE1=''Ягода-малина''. - Легкоступова Валентина
TTITLE2=''Синий туман''. - Добрынин Вячеслав
TTITLE3=''На теплоходе музыка играет''. - Зарубина Ольга
TTITLE4=''Колодец''. - Евдокимов Ярослав
TTITLE5=''Я не могу иначе''. - Толкунова Валентина
TTITLE6=''Кара-кум''. - гр. ''Круг''
TTITLE7=''Крыша дома твоего''. - Антонов Юрий
TTITLE8=''Трава у дома''. - ''Земляне''
TTITLE9=''Городские цветы''. - Боярский Михаил
TTITLE10=''Исчезли солнечные дни''. - Леонтьев Валерий
TTITLE11=''Наш сосед''. - Пьеха Эдита
TTITLE12=''Старая пластинка''. - ''Ариэль''
TTITLE13=''Надежда''. - Герман Анна
TTITLE14=''Добрые приметы''. - ''Самоцветы''
TTITLE15=''Звёздочка моя ясная''. - ''Цветы''
TTITLE16=''Прости''. - ''Синяя птица''
TTITLE17=''Ты проходишь стороной''. - ''Поющие сердца''
TTITLE18=''Объяснить невозможно''. - ''Лейся, песня''
TTITLE19=''Синий иней''. - ''Здравствуй, песня''
EXTD=YEAR: 2009
EXTT0=
EXTT1=
EXTT2=
EXTT3=
EXTT4=
EXTT5=
EXTT6=
EXTT7=
EXTT8=
EXTT9=
EXTT10=
EXTT11=
EXTT12=
EXTT13=
EXTT14=
EXTT15=
EXTT16=
EXTT17=
EXTT18=
EXTT19=
PLAYORDER=
